M48
; DRILL file {KiCad (5.1.5-0-10_14)} date Monday, March 08, 2021 at 04:24:26 PM
; FORMAT={3:3/ absolute / metric / suppress leading zeros}
; #@! TF.CreationDate,2021-03-08T16:24:26-08:00
; #@! TF.GenerationSoftware,Kicad,Pcbnew,(5.1.5-0-10_14)
FMAT,2
METRIC,TZ
T1C0.400
T2C1.000
%
G90
G05
T1
X138200Y-59500
X138200Y-62175
X139395Y-100635
X139649Y-99314
X140601Y-58833
X141650Y-63875
X142425Y-83250
X142700Y-73150
X142900Y-128100
X143685Y-104342
X144325Y-115225
X144417Y-98547
X144805Y-90729
X144958Y-93599
X145300Y-126100
X145796Y-119609
X145847Y-122022
X146533Y-56032
X146709Y-106032
X147066Y-98831
X147300Y-103125
X147320Y-58217
X147768Y-83458
X147815Y-106185
X148031Y-102362
X148361Y-67894
X148450Y-123600
X148723Y-109327
X148750Y-78050
X148752Y-62221
X148950Y-94475
X149023Y-103452
X149496Y-92953
X149525Y-99475
X149550Y-96325
X149850Y-101075
X150032Y-78468
X150350Y-85900
X150402Y-75448
X150600Y-98500
X150706Y-93494
X150810Y-82455
X150963Y-79374
X151028Y-43332
X151409Y-83196
X151583Y-118917
X151631Y-80079
X151809Y-98652
X152228Y-116794
X152705Y-93929
X153125Y-123325
X153619Y-139395
X153700Y-104500
X153992Y-120720
X154013Y-90637
X154178Y-69952
X154203Y-132182
X154899Y-82551
X154934Y-100848
X155076Y-89709
X155372Y-81001
X155400Y-91500
X155575Y-104597
X155689Y-83083
X155910Y-122162
X156536Y-65198
X156800Y-123375
X157074Y-90475
X157209Y-64354
X157475Y-113575
X157677Y-84689
X157840Y-65580
X157994Y-93679
X158071Y-80042
X158191Y-135941
X158559Y-81852
X158814Y-80848
X159207Y-136398
X159817Y-48006
X159825Y-60000
X160500Y-114275
X160675Y-135700
X160725Y-105725
X160897Y-82863
X161000Y-133200
X161239Y-75590
X161350Y-71175
X161980Y-78668
X162027Y-112217
X162228Y-83272
X162306Y-124409
X162331Y-102641
X162900Y-136100
X162916Y-80721
X163179Y-135146
X163250Y-103350
X163443Y-134231
X163560Y-47976
X164025Y-68725
X164084Y-81839
X164375Y-71200
X164400Y-134044
X164500Y-47825
X164525Y-116775
X164625Y-53875
X164700Y-75625
X164744Y-63094
X164750Y-74425
X165456Y-64008
X165748Y-91398
X165884Y-65104
X165975Y-104250
X165989Y-61900
X166000Y-86825
X166248Y-92402
X166294Y-114122
X166629Y-105600
X166715Y-134842
X166800Y-118925
X167000Y-110900
X167050Y-133125
X167150Y-53350
X167310Y-73812
X167600Y-93350
X167668Y-134842
X168500Y-93800
X168646Y-98313
X168656Y-83464
X168750Y-136550
X168826Y-135601
X169027Y-101448
X169175Y-104275
X170104Y-130353
X170637Y-76581
X170950Y-52225
X171600Y-44350
X171653Y-43028
X172200Y-45600
X172568Y-120244
X173225Y-54525
X173350Y-85225
X175243Y-61476
X175523Y-67050
X175600Y-49000
X175675Y-102650
X175725Y-53250
X175775Y-59450
X175900Y-96400
X176438Y-65500
X176656Y-131944
X176762Y-69898
X176850Y-83075
X177275Y-94325
X177300Y-101550
X178075Y-48025
X178200Y-53650
X178200Y-70619
X178750Y-65500
X178841Y-100330
X178950Y-85450
X179000Y-95450
X179025Y-59525
X179075Y-79800
X183845Y-136779
X184200Y-68200
X184200Y-79900
X184400Y-74200
X184400Y-86000
X187900Y-93250
X188325Y-97000
T2
X146460Y-90000
X149000Y-90000
X185585Y-139827
X188125Y-139827
X190665Y-139827
X135900Y-91608
X135900Y-94148
X135900Y-96688
X135900Y-99228
X135900Y-101768
X135900Y-104308
X135900Y-106848
X135900Y-109388
X135900Y-111928
X135900Y-114468
X135900Y-117008
X135900Y-119548
X135900Y-122088
X135900Y-124628
X135900Y-127168
X135900Y-129708
X135900Y-132248
X135900Y-134788
X172263Y-125273
X172263Y-127813
X152908Y-108001
X152908Y-110541
X135890Y-44450
X135890Y-46990
X135890Y-49530
X135890Y-52070
X135890Y-54610
X135890Y-57150
X135890Y-59690
X135890Y-62230
X135890Y-64770
X135890Y-67310
X135890Y-69850
X135890Y-72390
X135890Y-74930
X135890Y-77470
X135890Y-80010
X135890Y-82550
X135890Y-85090
X135890Y-87630
X148742Y-137363
X151282Y-137363
X153822Y-137363
X173279Y-107036
X173279Y-109576
X173279Y-112116
X158242Y-75032
X158242Y-77572
X147460Y-121000
X150000Y-121000
X139598Y-105004
X139598Y-107544
T0
M30
